<svg width="16" height="16" viewBox="0 0 16 16" fill="none" xmlns="http://www.w3.org/2000/svg">
<path d="M8 9.5C9.27292 9.5 11.2097 9.82088 12.8154 10.4629C13.6179 10.7838 14.3064 11.173 14.7861 11.6162C15.2622 12.056 15.5 12.5157 15.5 13V15.5H0.5V13C0.5 12.5157 0.73784 12.056 1.21387 11.6162C1.69358 11.173 2.38206 10.7838 3.18457 10.4629C4.7903 9.82088 6.72708 9.5 8 9.5ZM8 10.4004C6.44089 10.4004 4.85433 10.7811 3.65625 11.2432C3.05739 11.4741 2.53793 11.7328 2.1582 11.9863C1.9698 12.1121 1.79842 12.2473 1.66895 12.3906C1.55397 12.5179 1.40039 12.7295 1.40039 13V14.5996H14.5996V13C14.5996 12.7295 14.446 12.5179 14.3311 12.3906C14.2016 12.2473 14.0302 12.1121 13.8418 11.9863C13.4621 11.7328 12.9426 11.4741 12.3438 11.2432C11.1457 10.7811 9.55911 10.4004 8 10.4004ZM8 0.5C8.92826 0.5 9.81823 0.869013 10.4746 1.52539C11.131 2.18177 11.5 3.07174 11.5 4C11.5 4.92826 11.131 5.81823 10.4746 6.47461C9.81823 7.13099 8.92826 7.5 8 7.5C7.07174 7.5 6.18177 7.13099 5.52539 6.47461C4.86901 5.81823 4.5 4.92826 4.5 4C4.5 3.07174 4.86901 2.18177 5.52539 1.52539C6.18177 0.869013 7.07174 0.5 8 0.5ZM8 1.5C7.33696 1.5 6.70126 1.76358 6.23242 2.23242C5.76358 2.70126 5.5 3.33696 5.5 4C5.5 4.66304 5.76358 5.29874 6.23242 5.76758C6.70126 6.23642 7.33696 6.5 8 6.5C8.66304 6.5 9.29874 6.23642 9.76758 5.76758C10.2364 5.29874 10.5 4.66304 10.5 4C10.5 3.33696 10.2364 2.70126 9.76758 2.23242C9.29874 1.76358 8.66304 1.5 8 1.5Z" fill="#1D1213" stroke="#1D1213"/>
</svg>
